<svg width="16" height="16" viewBox="0 0 16 16" fill="none" xmlns="http://www.w3.org/2000/svg">
<g id="Icon/IOS/Phone">
<path id="Vector" d="M11.9683 14.2222C11.9639 14.2222 11.9594 14.2222 11.955 14.2222C9.82925 14.1526 7.33886 12.0923 5.62298 10.3755C3.9049 8.65869 1.8443 6.16747 1.77801 4.05187C1.7537 3.30948 3.57565 1.9893 3.59443 1.97604C4.06732 1.64683 4.59213 1.76393 4.80758 2.06221C4.95343 2.26438 6.33452 4.35679 6.48479 4.59431C6.64057 4.84067 6.61737 5.20744 6.42291 5.57533C6.31574 5.77971 5.95997 6.405 5.79313 6.69665C5.97323 6.95295 6.44943 7.58156 7.43277 8.56479C8.41722 9.54802 9.04479 10.0253 9.30222 10.2053C9.59391 10.0385 10.2193 9.6828 10.4237 9.57563C10.7861 9.38341 11.1507 9.3591 11.3993 9.51156C11.6534 9.66733 13.7405 11.0549 13.9328 11.1886C14.0941 11.3024 14.1979 11.4968 14.2189 11.7233C14.2388 11.952 14.1681 12.1939 14.0211 12.4049C14.009 12.4226 12.7041 14.2222 11.9683 14.2222Z" fill="#0D907C"/>
</g>
</svg>
